<?xml version="1.0" encoding="UTF-8" standalone="no"?>
<svg
   xmlns:dc="http://purl.org/dc/elements/1.1/"
   xmlns:cc="http://creativecommons.org/ns#"
   xmlns:rdf="http://www.w3.org/1999/02/22-rdf-syntax-ns#"
   xmlns:svg="http://www.w3.org/2000/svg"
   xmlns="http://www.w3.org/2000/svg"
   xmlns:sodipodi="http://sodipodi.sourceforge.net/DTD/sodipodi-0.dtd"
   xmlns:inkscape="http://www.inkscape.org/namespaces/inkscape"
   inkscape:version="1.0rc1 (09960d6, 2020-04-09)"
   sodipodi:docname="logo.svg"
   width="168.99324mm"
   height="106.65428mm"
   viewBox="0 0 168.99324 106.65428"
   version="1.1"
   id="svg8">
  <sodipodi:namedview
     inkscape:current-layer="svg8"
     inkscape:window-maximized="0"
     inkscape:window-y="29"
     inkscape:window-x="111"
     inkscape:cy="-36.935694"
     inkscape:cx="315.5003"
     inkscape:zoom="0.27972783"
     fit-margin-bottom="0"
     fit-margin-right="0"
     fit-margin-left="0"
     fit-margin-top="0"
     showgrid="false"
     id="namedview68"
     inkscape:window-height="480"
     inkscape:window-width="710"
     inkscape:pageshadow="2"
     inkscape:pageopacity="0"
     guidetolerance="10"
     gridtolerance="10"
     objecttolerance="10"
     borderopacity="1"
     bordercolor="#666666"
     pagecolor="#ffffff" />
  <defs
     id="defs2">
    <rect
       x="2.2678571"
       y="38.55357"
       width="203.3512"
       height="111.88095"
       id="rect12" />
  </defs>
  <metadata
     id="metadata5">
    <rdf:RDF>
      <cc:Work
         rdf:about="">
        <dc:format>image/svg+xml</dc:format>
        <dc:type
           rdf:resource="http://purl.org/dc/dcmitype/StillImage" />
        <dc:title></dc:title>
      </cc:Work>
    </rdf:RDF>
  </metadata>
  <g
     transform="translate(-21.52388,-82.60378)"
     id="layer1">
    <g
       aria-label="Eμμ"
       id="text10"
       style="font-style:normal;font-weight:normal;font-size:91.7222px;line-height:1.25;font-family:sans-serif;white-space:pre;shape-inside:url(#rect12);fill:#000000;fill-opacity:1;stroke:none"
       transform="matrix(1.5572967,0,0,1.3686243,-57.90763,2.6579124)">
      <path
         inkscape:connector-curvature="0"
         d="m 76.982042,58.413304 q 4.433838,0 7.613661,1.119656 3.22461,1.07487 5.374349,2.552816 2.14974,1.43316 3.314182,2.911106 1.164442,1.477946 1.477946,2.284098 0.179145,0.403076 0.179145,0.71658 0.04479,0.268717 0.04479,0.492649 0,0.537434 -0.268717,0.761366 -0.223931,0.223931 -0.582221,0.806152 -0.268718,0.447862 -0.627008,0.627007 -0.313503,0.179145 -0.71658,0.313504 -0.35829,0.134359 -0.716579,0.35829 -0.313504,0.179145 -0.537435,0.627007 -0.71658,1.343588 -2.015381,1.343588 -0.761366,0 -1.477946,-0.447863 -0.71658,-0.492648 -1.612305,-1.209228 -0.895725,-0.71658 -2.104953,-1.567519 -1.164442,-0.850938 -2.911106,-1.567518 -1.701877,-0.71658 -4.075548,-1.164442 -2.37367,-0.492649 -5.643066,-0.492649 -3.582899,0 -6.31486,1.119656 -2.687174,1.07487 -5.016059,3.224609 -2.015381,1.881022 -3.045464,3.985976 -0.985298,2.104953 -0.985298,4.075548 0,2.284098 1.477946,4.16512 1.07487,1.343587 3.179823,2.642388 2.14974,1.298801 4.568197,2.463243 2.463243,1.164443 4.792128,2.14974 2.37367,0.940511 3.851616,1.612305 1.298801,0.582221 1.701878,1.164442 0.447862,0.582221 0.447862,1.209228 0,0.671794 -0.268717,1.43316 -0.223932,0.71658 -0.223932,1.477946 0,0.35829 0.08957,0.671794 0.08957,0.313503 0.08957,0.627007 0,0.71658 -0.447862,1.254014 -0.403076,0.49265 -1.119656,0.89573 -0.671794,0.40307 -1.567519,0.71658 -0.895724,0.3135 -1.791449,0.58222 -1.298801,0.40307 -3.314182,1.16444 -2.015381,0.76137 -3.896403,2.06017 -1.881022,1.25401 -3.224609,3.13503 -1.343588,1.88103 -1.343588,4.5682 0,1.79145 0.761367,3.35897 0.761366,1.56752 2.149739,2.77674 1.43316,1.16445 3.403754,1.83624 1.970595,0.67179 4.344266,0.67179 5.419135,0 9.808187,-2.37367 4.389051,-2.37367 7.210584,-6.494 0.627008,-0.89573 1.477946,-2.55282 0.895725,-1.70187 1.881022,-4.12033 0.223932,-0.53744 0.582222,-0.80615 0.358289,-0.31351 0.716579,-0.31351 0.268718,0 0.447863,0.22393 0.223931,0.17915 0.223931,0.53744 0,0.35829 -0.403076,1.52273 -0.403076,1.11966 -1.119656,2.68718 -0.71658,1.52273 -1.746664,3.31418 -0.985297,1.79145 -2.149739,3.44854 -1.612305,2.2841 -3.762044,4.29948 -2.104954,1.97059 -4.612983,3.44854 -2.463243,1.47794 -5.284777,2.2841 -2.821533,0.85093 -5.911783,0.85093 -2.776747,0 -5.598281,-0.80615 -2.821533,-0.76136 -5.150417,-2.32888 -2.284099,-1.56752 -3.762044,-3.98598 -1.43316,-2.41846 -1.43316,-5.68785 0,-3.2694 1.254015,-5.59828 1.254014,-2.37367 3.09025,-3.98598 1.881022,-1.6123 4.030762,-2.64238 2.194526,-1.03009 4.030762,-1.6571 1.881022,-0.67179 3.135036,-1.07487 1.254015,-0.403072 1.254015,-0.806148 0,-0.313503 -0.671793,-0.627007 -0.627008,-0.35829 -1.701878,-0.761366 -1.030083,-0.447863 -2.37367,-0.985297 -1.343588,-0.537435 -2.731961,-1.298801 -2.239312,-1.209229 -4.030762,-2.552816 -1.791449,-1.343587 -3.09025,-2.911106 -1.254015,-1.612305 -1.925809,-3.493327 -0.671793,-1.925808 -0.671793,-4.254693 0,-3.09025 0.940511,-6.090928 0.985297,-3.000678 2.73196,-5.643067 1.746664,-2.687174 4.120335,-4.926486 2.418457,-2.239312 5.284776,-3.851617 2.911106,-1.657091 6.180501,-2.552816 3.269396,-0.940511 6.717936,-0.940511 z"
         style="font-style:normal;font-variant:normal;font-weight:normal;font-stretch:normal;font-family:Engagement;-inkscape-font-specification:Engagement;text-align:center;text-anchor:middle"
         id="path16" />
      <path
         inkscape:connector-curvature="0"
         d="m 126.96349,106.64809 q -1.43316,3.98597 -2.64239,7.03144 -1.16444,3.00067 -2.32889,5.06084 -1.11965,2.01538 -2.32888,3.04547 -1.20923,1.03008 -2.5976,1.03008 -0.94051,0 -1.92581,-0.35829 -0.9853,-0.35829 -1.83624,-1.03008 -0.85094,-0.71658 -1.47794,-1.70188 -0.58222,-1.03009 -0.76137,-2.37367 -0.13436,-0.94051 -0.17914,-1.9706 -0.0448,-1.07487 -0.0448,-2.19452 0,-1.16445 0,-2.23932 0,-1.07486 0.0896,-2.01538 -0.9853,3.98598 -2.01538,6.67315 -0.9853,2.68718 -2.01538,4.29948 -1.03008,1.61231 -2.19453,2.32889 -1.11965,0.67179 -2.37367,0.67179 -1.11965,0 -2.10495,-0.58222 0.17915,1.6123 0.35829,3.31418 0.22393,1.70188 0.44786,3.13504 0.22393,1.47794 0.40308,2.50803 0.22393,1.07487 0.35829,1.38837 0.0896,0.22393 0.13436,0.44786 0.0448,0.22394 0.0448,0.44787 0,0.67179 -0.3135,1.11965 -0.3135,0.49265 -0.80615,0.49265 h -0.26872 q -0.49265,0 -0.58222,0.35829 -0.04479,0.35829 -0.403077,0.35829 h -0.08957 q -0.492648,0 -0.895725,0.0448 -0.403076,0.0896 -1.030083,0.3135 -0.268718,0.0896 -0.447863,0.0896 -0.492648,0 -0.850938,-0.44786 -0.35829,-0.40308 -0.537435,-1.38837 -0.08957,-0.40308 -0.134359,-1.38838 0,-0.98529 0,-2.41845 0,-1.34359 0.04479,-3.31418 0.04479,-1.9706 0.134358,-4.2547 0.08957,-2.23931 0.179145,-4.65777 0.134359,-2.46324 0.268718,-4.74734 0.179145,-2.32888 0.313503,-4.34426 0.179145,-2.06017 0.403077,-3.53812 0.134358,-1.70187 0.358289,-3.40375 0.223932,-1.74666 0.582222,-3.135038 0.134358,-0.537435 0.35829,-1.298801 0.223931,-0.761366 0.447862,-0.985297 0.492649,-0.447862 0.806152,-0.806152 0.35829,-0.35829 0.582224,-0.35829 0.31351,0 0.49265,0.268717 0.22393,0.223931 0.44786,0.223931 0.13436,0 0.49265,-0.223931 0.40308,-0.223931 0.85094,-0.492648 0.44786,-0.268718 0.85094,-0.492649 0.44786,-0.223931 0.62701,-0.223931 0.53743,0 0.53743,0.985297 0,0.268717 -0.0448,0.627007 -0.0448,0.35829 -0.13435,0.850939 -0.40308,2.866316 -0.58223,5.553496 -0.13435,2.64239 -0.13435,5.68785 0,1.70188 0.0448,3.09025 0.0448,1.38837 0.17915,2.41846 0.17914,0.9853 0.53743,1.56752 0.35829,0.53743 0.9853,0.53743 0.89572,0 1.65709,-1.16444 0.76137,-1.20923 1.38837,-3.09025 0.6718,-1.88102 1.25402,-4.16512 0.58222,-2.2841 1.11965,-4.43384 0.53744,-2.19453 1.07487,-4.030761 0.58223,-1.836236 1.16445,-2.776747 0.58222,-0.895725 1.52273,-1.477946 0.9853,-0.582221 1.83623,-0.582221 0.9853,0 1.38838,0.761366 0.44786,0.716579 0.44786,2.821533 0,1.522732 -0.0896,2.866316 -0.0896,1.34359 -0.17915,2.77675 -0.0896,1.43316 -0.17914,3.09025 -0.0896,1.61231 -0.0896,3.62769 0,1.83623 0.13435,3.00067 0.17915,1.11966 0.44787,1.74667 0.26871,0.62701 0.58222,0.85094 0.3135,0.22393 0.627,0.22393 1.38838,0 2.64239,-2.5976 1.25402,-2.64239 3.13504,-7.30016 0.22393,-0.53744 0.58222,-0.80615 0.35829,-0.31351 0.71658,-0.31351 0.26872,0 0.44786,0.22393 0.22393,0.17915 0.22393,0.53744 0,0.3135 -0.13435,0.62701 z"
         style="font-style:normal;font-variant:normal;font-weight:normal;font-stretch:normal;font-family:Engagement;-inkscape-font-specification:Engagement;text-align:center;text-anchor:middle"
         id="path18" />
      <path
         inkscape:connector-curvature="0"
         d="m 159.38873,106.64809 q -1.43316,3.98597 -2.64239,7.03144 -1.16444,3.00067 -2.32889,5.06084 -1.11965,2.01538 -2.32888,3.04547 -1.20923,1.03008 -2.5976,1.03008 -0.94051,0 -1.92581,-0.35829 -0.9853,-0.35829 -1.83624,-1.03008 -0.85094,-0.71658 -1.47794,-1.70188 -0.58223,-1.03009 -0.76137,-2.37367 -0.13436,-0.94051 -0.17914,-1.9706 -0.0448,-1.07487 -0.0448,-2.19452 0,-1.16445 0,-2.23932 0,-1.07486 0.0896,-2.01538 -0.9853,3.98598 -2.01538,6.67315 -0.9853,2.68718 -2.01538,4.29948 -1.03008,1.61231 -2.19453,2.32889 -1.11965,0.67179 -2.37367,0.67179 -1.11965,0 -2.10495,-0.58222 0.17914,1.6123 0.35829,3.31418 0.22393,1.70188 0.44786,3.13504 0.22393,1.47794 0.40308,2.50803 0.22393,1.07487 0.35829,1.38837 0.0896,0.22393 0.13436,0.44786 0.0448,0.22394 0.0448,0.44787 0,0.67179 -0.3135,1.11965 -0.3135,0.49265 -0.80615,0.49265 h -0.26872 q -0.49265,0 -0.58222,0.35829 -0.0448,0.35829 -0.40308,0.35829 h -0.0896 q -0.49265,0 -0.89572,0.0448 -0.40308,0.0896 -1.03009,0.3135 -0.26872,0.0896 -0.44786,0.0896 -0.49265,0 -0.85094,-0.44786 -0.35829,-0.40308 -0.53743,-1.38837 -0.0896,-0.40308 -0.13436,-1.38838 0,-0.98529 0,-2.41845 0,-1.34359 0.0448,-3.31418 0.0448,-1.9706 0.13436,-4.2547 0.0896,-2.23931 0.17915,-4.65777 0.13436,-2.46324 0.26871,-4.74734 0.17915,-2.32888 0.31351,-4.34426 0.17914,-2.06017 0.40307,-3.53812 0.13436,-1.70187 0.35829,-3.40375 0.22394,-1.74666 0.58223,-3.135038 0.13435,-0.537435 0.35829,-1.298801 0.22393,-0.761366 0.44786,-0.985297 0.49265,-0.447862 0.80615,-0.806152 0.35829,-0.35829 0.58222,-0.35829 0.3135,0 0.49265,0.268717 0.22393,0.223931 0.44786,0.223931 0.13436,0 0.49265,-0.223931 0.40308,-0.223931 0.85094,-0.492648 0.44786,-0.268718 0.85094,-0.492649 0.44786,-0.223931 0.62701,-0.223931 0.53743,0 0.53743,0.985297 0,0.268717 -0.0448,0.627007 -0.0448,0.35829 -0.13435,0.850939 -0.40308,2.866316 -0.58223,5.553496 -0.13435,2.64239 -0.13435,5.68785 0,1.70188 0.0448,3.09025 0.0448,1.38837 0.17915,2.41846 0.17914,0.9853 0.53743,1.56752 0.35829,0.53743 0.9853,0.53743 0.89572,0 1.65709,-1.16444 0.76137,-1.20923 1.38837,-3.09025 0.6718,-1.88102 1.25402,-4.16512 0.58222,-2.2841 1.11965,-4.43384 0.53744,-2.19453 1.07487,-4.030761 0.58222,-1.836236 1.16445,-2.776747 0.58222,-0.895725 1.52273,-1.477946 0.9853,-0.582221 1.83623,-0.582221 0.9853,0 1.38838,0.761366 0.44786,0.716579 0.44786,2.821533 0,1.522732 -0.0896,2.866316 -0.0896,1.34359 -0.17915,2.77675 -0.0896,1.43316 -0.17914,3.09025 -0.0896,1.61231 -0.0896,3.62769 0,1.83623 0.13436,3.00067 0.17915,1.11966 0.44787,1.74667 0.26871,0.62701 0.58222,0.85094 0.3135,0.22393 0.627,0.22393 1.38838,0 2.64239,-2.5976 1.25402,-2.64239 3.13504,-7.30016 0.22393,-0.53744 0.58222,-0.80615 0.35829,-0.31351 0.71658,-0.31351 0.26872,0 0.44786,0.22393 0.22393,0.17915 0.22393,0.53744 0,0.3135 -0.13435,0.62701 z"
         style="font-style:normal;font-variant:normal;font-weight:normal;font-stretch:normal;font-family:Engagement;-inkscape-font-specification:Engagement;text-align:center;text-anchor:middle"
         id="path20" />
    </g>
  </g>
</svg>
